<svg width="16" height="11" viewBox="0 0 16 11" fill="none" xmlns="http://www.w3.org/2000/svg">
<path d="M6.97958 3.01859C6.97958 4.12479 6.08283 5.02155 4.97662 5.02155C3.87042 5.02155 2.97366 4.12479 2.97366 3.01859C2.97366 1.91238 3.87042 1.01562 4.97662 1.01562C6.08283 1.01562 6.97958 1.91238 6.97958 3.01859Z" fill="#F4B5A4"/>
<path d="M11.987 8.02599C11.987 9.13219 11.0902 10.0289 9.98402 10.0289C8.87782 10.0289 7.98106 9.13219 7.98106 8.02599C7.98106 6.91978 8.87782 6.02303 9.98402 6.02303C11.0902 6.02303 11.987 6.91978 11.987 8.02599Z" fill="#F4B5A4"/>
<path d="M6.97958 3.01859H14.9914M6.97958 3.01859C6.97958 4.12479 6.08283 5.02155 4.97662 5.02155C3.87042 5.02155 2.97366 4.12479 2.97366 3.01859M6.97958 3.01859C6.97958 1.91238 6.08283 1.01562 4.97662 1.01562C3.87042 1.01562 2.97366 1.91238 2.97366 3.01859M0.970703 3.01859H2.97366M11.987 8.02599H14.9914M11.987 8.02599C11.987 9.13219 11.0902 10.0289 9.98402 10.0289C8.87782 10.0289 7.98106 9.13219 7.98106 8.02599M11.987 8.02599C11.987 6.91978 11.0902 6.02303 9.98402 6.02303C8.87782 6.02303 7.98106 6.91978 7.98106 8.02599M0.970703 8.02599H7.98106" stroke="#4B4544" stroke-linecap="round" stroke-linejoin="round"/>
</svg>
